<?xml version="1.0" standalone="no"?>
<!DOCTYPE svg PUBLIC "-//W3C//DTD SVG 20010904//EN"
 "http://www.w3.org/TR/2001/REC-SVG-20010904/DTD/svg10.dtd">
<svg version="1.0" xmlns="http://www.w3.org/2000/svg"
 width="419.000000pt" height="393.000000pt" viewBox="0 0 419.000000 393.000000"
 preserveAspectRatio="xMidYMid meet">

<g transform="translate(0.000000,393.000000) scale(0.100000,-0.100000)"
fill="#000000" stroke="none">
<path d="M2875 3919 c-145 -19 -315 -82 -441 -162 -195 -122 -393 -360 -464
-554 -33 -92 -70 -224 -70 -253 0 -9 -24 -41 -53 -71 -40 -41 -60 -74 -86
-139 -59 -150 -53 -292 20 -436 l31 -60 -29 -60 c-27 -56 -33 -60 -89 -81 -32
-12 -369 -134 -749 -273 -379 -138 -704 -260 -721 -271 -55 -34 -131 -125
-155 -187 -17 -42 -23 -79 -23 -139 -1 -45 2 -84 6 -88 4 -4 51 18 105 50 97
56 99 57 180 57 114 1 135 -13 194 -127 40 -78 51 -93 90 -113 37 -19 57 -22
122 -20 42 2 77 1 77 -2 0 -9 -128 -76 -190 -100 -30 -12 -66 -31 -78 -43
-103 -96 -124 -415 -38 -585 77 -152 289 -191 390 -71 32 38 42 61 65 144 l16
60 102 6 c55 4 116 9 135 13 l35 6 17 -79 c36 -167 121 -285 232 -317 86 -25
186 -3 236 53 31 34 59 113 65 182 l6 69 86 17 c191 38 387 118 473 195 24 20
75 53 113 72 64 31 74 34 120 26 62 -11 131 -3 163 18 19 13 77 95 168 241
l14 22 57 -35 c117 -70 280 -96 381 -60 213 76 321 371 189 515 -29 31 -94 61
-134 61 -22 0 -36 6 -44 21 -6 11 -30 29 -53 39 -43 20 -86 17 -133 -8 -18
-10 -25 -9 -39 5 -25 25 -64 113 -64 145 0 25 3 27 58 33 296 34 593 211 783
467 183 247 262 567 214 865 -74 458 -451 838 -932 938 -94 19 -270 26 -358
14z m360 -79 c81 -16 211 -58 203 -65 -2 -1 -41 1 -88 4 -460 37 -920 -212
-1123 -607 -25 -48 -55 -117 -66 -153 l-22 -66 -89 1 -90 1 6 35 c24 132 108
316 200 436 265 347 653 498 1069 414z m135 -110 c101 -11 228 -43 280 -70 43
-22 193 -161 243 -224 l32 -41 -40 33 c-150 124 -260 185 -405 224 -73 20
-108 23 -240 22 -138 -1 -165 -4 -245 -28 -298 -90 -548 -285 -668 -521 -18
-35 -38 -57 -66 -73 -23 -12 -41 -20 -41 -17 0 21 55 134 96 196 173 262 474
450 794 494 120 16 155 17 260 5z m35 -260 c153 -22 322 -103 403 -193 112
-125 163 -294 147 -486 l-7 -84 -45 84 c-203 381 -450 568 -812 614 -53 7 -54
8 -30 21 46 26 157 50 239 53 19 0 67 -4 105 -9z m-815 -431 c112 -26 207
-109 228 -199 7 -29 10 -56 6 -61 -3 -5 -30 -9 -61 -9 -103 0 -168 -33 -180
-91 -6 -34 -13 -35 -102 -14 -106 25 -137 48 -177 133 -20 42 -40 72 -47 69
-21 -6 -20 -73 2 -115 44 -86 118 -130 258 -152 63 -10 181 -57 182 -71 1 -9
-43 -26 -109 -42 -61 -16 -56 -10 -110 -129 l-39 -88 -33 6 c-100 17 -251 60
-308 88 -74 36 -130 87 -130 119 0 12 14 58 31 102 96 250 179 366 307 427 93
45 170 52 282 27z m-510 -149 c0 -6 -7 -22 -17 -36 -13 -21 -21 -24 -42 -18
-14 4 -48 10 -76 13 l-50 6 45 22 c47 24 140 32 140 13z m-80 -110 c17 -9 15
-16 -24 -112 -24 -57 -62 -156 -86 -220 -24 -65 -47 -118 -50 -118 -4 0 -14
19 -23 43 -62 166 -40 332 53 395 35 23 97 29 130 12z m855 -89 c9 -41 -17
-99 -49 -107 -54 -13 -176 35 -176 70 0 42 51 63 157 65 60 1 62 0 68 -28z
m-155 -251 c0 -11 -11 -27 -25 -36 -21 -14 -31 -15 -50 -6 -36 16 -31 25 23
43 26 9 48 17 50 18 1 0 2 -8 2 -19z m-727 -41 c65 -63 206 -122 357 -149 36
-6 71 -14 78 -16 15 -4 -70 -178 -158 -324 -72 -118 -106 -187 -97 -197 11
-10 84 64 124 125 l34 53 37 -28 c172 -132 397 -217 610 -230 85 -6 92 -8 92
-27 0 -28 -25 -133 -56 -234 l-25 -82 -27 20 c-30 21 -542 210 -571 210 -31 0
-67 -37 -122 -123 l-52 -83 -116 57 c-197 98 -359 224 -481 376 l-62 77 24 18
c12 10 36 28 52 40 l28 21 -7 -23 c-12 -37 15 -20 65 43 72 88 163 276 233
480 8 22 13 22 40 -4z m620 -430 c97 -74 230 -139 347 -171 73 -19 109 -23
250 -23 160 0 226 10 355 50 11 3 -9 -9 -45 -28 -109 -58 -182 -72 -365 -71
-144 0 -169 3 -246 27 -173 53 -290 120 -416 240 l-72 69 15 30 15 29 40 -45
c22 -25 77 -73 122 -107z m-53 -104 c36 -26 110 -70 165 -97 106 -51 92 -54
-38 -7 -109 39 -217 101 -325 185 -2 1 4 16 14 33 l18 30 50 -48 c28 -26 80
-69 116 -96z m-1074 84 c-44 -24 -220 -95 -311 -127 -349 -121 -862 -316 -898
-341 -67 -46 -118 -120 -143 -211 -11 -42 -12 -43 -13 -13 -2 79 85 220 159
258 16 8 201 77 412 154 210 77 480 176 598 220 224 83 261 94 196 60z m70
-211 c130 -166 313 -314 501 -405 118 -57 153 -88 153 -133 0 -46 -29 -73 -79
-72 -57 1 -99 16 -213 75 -173 89 -413 291 -491 411 -43 68 -45 127 -4 162 48
41 77 33 133 -38z m-158 -182 c31 -46 191 -199 272 -261 92 -71 261 -171 323
-190 28 -10 56 -21 61 -26 5 -4 -6 -31 -23 -59 -38 -62 -43 -119 -15 -152 26
-29 200 -157 228 -167 12 -5 58 -14 102 -21 137 -20 137 -20 54 -51 -141 -55
-292 -76 -424 -59 -90 11 -220 46 -214 58 28 53 39 88 30 102 -18 28 -40 23
-52 -14 -14 -43 -91 -116 -158 -150 -72 -36 -203 -73 -332 -92 l-111 -16 -54
26 c-140 69 -234 228 -235 398 0 45 2 49 48 80 26 18 67 50 91 73 94 86 275
344 337 482 19 40 37 73 41 73 5 0 19 -16 31 -34z m1087 -127 l76 -51 -28 -18
c-15 -9 -35 -26 -44 -36 -33 -39 -303 -480 -307 -501 -2 -13 -7 -23 -9 -23 -9
0 -107 73 -120 89 -22 26 -14 69 22 126 33 51 38 55 75 55 62 0 102 41 108
112 2 31 -1 64 -7 76 -10 19 -3 35 53 122 46 70 71 100 85 100 11 0 54 -23 96
-51z m685 -30 c0 -4 -7 -20 -15 -35 -8 -16 -15 -51 -15 -77 0 -41 5 -53 32
-80 27 -27 31 -39 33 -87 2 -62 24 -112 61 -136 35 -24 39 -12 9 31 -18 28
-25 51 -25 86 0 143 95 247 217 237 61 -5 87 -24 114 -83 68 -148 -64 -357
-244 -387 -46 -8 -77 -8 -120 1 -74 16 -220 88 -210 104 3 7 17 29 30 49 12
20 27 55 32 78 8 34 5 48 -15 87 l-23 47 34 110 c19 60 35 116 35 124 0 14 69
-55 70 -69z m-232 -118 c57 -30 3 -17 -154 40 -93 33 -177 69 -188 79 -12 12
38 -2 150 -44 93 -34 180 -68 192 -75z m413 129 c27 -15 24 -23 -17 -45 -20
-10 -56 -42 -81 -69 -35 -39 -46 -47 -54 -35 -33 53 39 159 109 159 13 0 32
-5 43 -10z m-581 -124 c79 -30 146 -58 147 -63 2 -5 -32 -65 -75 -133 -66
-106 -82 -126 -107 -130 -25 -4 -40 -23 -107 -134 -43 -71 -79 -130 -81 -132
-8 -7 -297 44 -311 55 -32 27 -17 64 94 245 61 98 110 180 110 182 0 14 85
137 103 149 34 24 73 17 227 -39z m228 -92 c38 -26 45 -59 23 -108 -27 -63
-216 -357 -246 -386 -23 -22 -36 -25 -96 -24 -37 0 -71 3 -75 6 -3 4 13 39 35
80 23 40 51 92 63 115 17 33 29 44 57 50 32 8 43 22 120 146 46 75 87 137 91
137 3 0 16 -7 28 -16z m-2188 -331 c0 -131 103 -334 194 -382 43 -24 31 -34
-34 -28 -70 6 -137 41 -171 89 -13 17 -24 27 -27 20 -3 -11 27 -74 50 -103 16
-20 87 -59 107 -59 18 0 8 -66 -21 -126 -42 -89 -139 -120 -235 -73 -93 45
-135 148 -135 329 -1 90 4 129 20 180 26 78 55 109 135 138 32 12 68 29 80 37
32 22 37 19 37 -22z m949 -303 c98 -38 204 -53 353 -48 121 4 136 3 114 -9
-46 -24 -233 -83 -263 -83 -52 0 -207 59 -281 108 l-24 16 24 18 c28 21 18 22
77 -2z m-89 -72 c28 -17 82 -46 121 -63 68 -32 69 -33 38 -37 -69 -10 -253 38
-273 71 -4 6 -12 11 -18 11 -15 0 19 -50 56 -82 31 -27 97 -54 146 -60 24 -3
25 -6 25 -63 0 -83 -27 -139 -80 -171 -86 -50 -201 -18 -263 74 -35 52 -82
184 -82 231 0 26 4 29 98 55 53 16 115 36 137 46 22 10 41 19 42 19 1 1 25
-13 53 -31z"/>
<path d="M2452 1133 c-29 -19 -47 -41 -62 -74 -37 -87 -22 -128 62 -170 67
-34 69 -34 114 -13 61 29 104 128 84 190 -10 28 -23 40 -71 64 -32 17 -64 30
-72 30 -7 0 -32 -12 -55 -27z m162 -86 c8 -23 6 -36 -9 -65 -26 -49 -58 -54
-79 -13 -22 41 -20 58 9 87 33 33 66 29 79 -9z"/>
</g>
</svg>
